<svg width="128" height="128" viewBox="0 0 128 128" fill="none" xmlns="http://www.w3.org/2000/svg">
<path d="M122.752 74.1117C122.624 73.9837 122.496 73.7277 122.368 73.5997C122.24 73.4717 122.112 73.4717 121.984 73.4717L122.112 73.3437C122.24 73.2157 122.496 73.0877 122.496 72.8317H122.624C122.752 72.7037 122.624 72.7037 122.496 72.5757C122.496 70.9117 122.496 69.1197 122.496 67.4557C122.624 67.3277 122.624 67.1997 122.624 66.9437C122.368 66.6877 122.24 66.4317 122.112 66.1757C121.984 65.9197 121.984 65.5357 122.112 65.2797C122.24 65.1517 122.368 64.8957 122.496 64.6397L122.368 64.5117V64.3837C122.24 64.1277 122.112 63.7437 121.984 63.4877C122.112 63.3597 122.112 63.3597 122.24 63.1037C122.112 62.3357 122.496 61.5677 121.984 60.9277C121.856 60.7997 121.856 60.6717 121.984 60.6717C121.6 60.0317 121.856 59.3917 121.984 58.6237C121.984 58.3677 121.984 58.2397 121.856 57.9837C121.728 57.7277 121.6 57.4717 121.216 57.3437C121.088 57.3437 120.832 57.2157 120.704 57.3437C120.576 57.4717 120.448 57.4717 120.192 57.5997C120.192 57.3437 120.192 57.0877 120.064 56.8317C119.936 56.7037 119.808 56.5757 119.68 56.5757C119.936 56.1917 120.192 56.1917 120.576 56.0637C120.576 55.8077 120.576 55.5517 120.576 55.2957C120.576 54.9117 120.576 54.5277 120.576 54.0157C120.576 54.0157 120.576 54.0157 120.704 53.8877C120.704 53.7597 120.704 53.7597 120.576 53.6317C120.192 53.1197 120.192 52.4797 120.192 51.8397C119.808 51.4557 119.808 51.0717 119.808 50.5597C119.68 50.4317 119.68 50.4317 119.68 50.3037C119.552 49.9197 119.552 49.5357 119.296 49.2797C119.168 49.1517 119.168 49.1517 119.168 49.0237C119.168 48.7677 119.04 48.7677 118.912 48.7677C119.04 48.5117 119.04 48.2557 118.784 47.9997C118.4 47.6157 118.272 47.2317 118.272 46.7197C118.016 46.4637 117.888 46.2077 117.888 45.8237C117.632 45.5677 117.76 45.1837 117.504 44.9277C117.248 44.6717 117.376 44.2877 117.12 44.0317C116.864 43.7757 116.992 43.3917 116.736 43.1357C116.608 43.0077 116.48 42.7517 116.48 42.6237C116.48 42.4957 116.48 42.3677 116.352 42.2397C116.224 42.1117 116.224 41.9837 116.096 41.8557C115.968 41.7277 115.968 41.5997 115.84 41.4717C115.712 41.3437 115.712 41.2157 115.584 41.0877C115.584 40.9597 115.456 40.8317 115.328 40.7037C115.2 40.5757 115.2 40.4477 115.072 40.3197C114.944 40.1917 114.944 40.0637 114.816 40.0637C114.688 39.9357 114.56 39.8077 114.304 39.6797C114.048 39.5517 113.92 39.4237 113.92 39.1677C113.664 39.0397 113.536 38.7837 113.408 38.3997C113.408 38.1437 113.28 38.1437 113.152 38.1437C113.152 37.8877 113.024 37.6317 112.896 37.3757C112.768 37.1197 112.64 36.8637 112.512 36.7357C112.384 36.6077 112.256 36.4797 112.128 36.3517C111.744 35.9677 112.256 35.3277 111.744 34.9437C111.616 34.8157 111.616 34.8157 111.744 34.6877C111.744 34.5597 111.616 34.4317 111.488 34.3037L111.36 34.1757C111.36 34.0477 111.36 33.9197 111.36 33.7917C111.232 33.7917 111.104 33.6637 110.976 33.6637C110.976 33.4077 110.976 33.1517 110.848 32.8957C110.592 32.7677 110.464 32.3837 110.336 32.1277V31.8717C110.336 31.7437 110.208 31.6157 110.208 31.4877C110.08 31.3597 110.08 31.2317 109.952 31.1037C109.824 30.9757 109.696 30.8477 109.44 30.7197C109.184 30.5917 109.056 30.4637 109.056 30.2077C108.928 30.0797 108.8 29.9517 108.672 29.8237C108.416 29.6957 108.288 29.5677 108.288 29.4397C108.16 29.4397 108.032 29.4397 107.904 29.4397C107.904 29.3117 107.904 29.1837 107.904 29.0557C107.648 29.0557 107.52 28.9277 107.52 28.6717C107.392 28.5437 107.264 28.4157 107.008 28.2877C106.752 28.2877 106.496 28.1597 106.24 28.1597C106.112 28.0317 105.984 28.0317 105.728 28.0317C105.6 28.0317 105.472 28.1597 105.216 28.2877C105.088 28.4157 104.96 28.5437 104.832 28.5437C104.448 28.7997 104.064 29.0557 104.064 29.5677C104.064 29.5677 104.064 29.5677 104.064 29.6957C103.936 29.5677 103.936 29.3117 103.936 29.1837C104.32 29.1837 104.448 28.7997 104.704 28.5437C104.832 28.4157 104.832 28.2877 104.96 28.0317C105.088 27.6477 105.216 27.3917 105.344 27.0077C105.344 26.8797 105.472 26.6237 105.472 26.4957C105.472 26.2397 105.472 25.9837 105.472 25.7277C105.472 25.5997 105.472 25.4717 105.344 25.2157C105.216 24.9597 105.088 24.7037 105.088 24.3197C105.088 24.1917 104.96 24.0637 104.96 23.9357C104.832 23.6797 104.832 23.5517 104.704 23.2957C104.576 23.1677 104.576 23.0397 104.448 22.9117C104.32 22.7837 104.064 22.6557 103.936 22.5277C103.68 22.2717 103.808 21.8877 103.424 21.7597C103.296 21.6317 103.168 21.3757 103.04 21.2477C102.912 21.2477 102.912 21.1197 102.912 20.9917C102.912 20.8637 102.784 20.7357 102.656 20.6077C102.656 20.4797 102.656 20.4797 102.656 20.3517C102.4 20.0957 102.528 19.7117 102.272 19.5837C102.144 19.4557 102.144 19.4557 102.144 19.3277C102.144 19.0717 101.888 18.9437 101.76 18.6877C101.248 18.4317 101.12 18.8157 100.992 19.0717C100.736 19.4557 100.352 19.1997 100.096 19.0717C99.712 19.0717 99.456 18.9437 99.2 18.6877C99.072 18.5597 98.816 18.4317 98.688 18.3037C97.92 17.9197 97.28 17.4077 97.024 16.5117C96.896 16.3837 96.768 16.1277 96.64 15.9997C96.384 15.7437 96.512 15.3597 96.128 15.1037C95.744 14.8477 95.744 14.5917 95.744 14.2077C95.616 14.2077 95.488 14.2077 95.488 14.2077C95.488 14.0797 95.488 13.9517 95.36 13.8237C95.36 13.5677 95.36 13.3117 95.36 12.9277C95.36 12.9277 95.36 12.9277 95.488 12.7997C95.488 12.6717 95.488 12.6717 95.36 12.5437C94.976 12.1597 94.976 11.7757 94.848 11.2637C94.592 11.0077 94.464 10.7517 94.464 10.3677C94.464 10.2397 94.464 10.2397 94.464 10.1117C94.464 9.98369 94.336 9.85569 94.208 9.72769C94.08 9.59969 94.08 9.47169 93.952 9.34369C93.824 9.21569 93.696 9.08769 93.568 9.08769C93.44 8.95969 93.312 8.83169 93.184 8.70369C93.056 8.57569 92.928 8.44769 92.8 8.31969C92.672 8.19169 92.544 8.06369 92.288 7.93569C92.032 7.80769 91.648 7.67969 91.52 7.42369C91.136 7.42369 90.88 7.29569 90.624 7.03969C90.88 7.67969 90.624 7.67969 90.368 7.67969C90.368 7.55169 90.368 7.42369 90.24 7.42369C89.984 7.16769 89.6 7.16769 89.216 7.03969C89.088 7.03969 88.96 7.03969 88.96 6.91169C88.576 6.65569 88.064 6.39969 87.68 6.14369C87.424 6.01569 87.168 6.01569 86.784 6.01569C86.144 6.01569 85.632 5.88769 85.12 5.75969C84.864 5.63169 84.48 5.63169 84.224 5.63169C83.84 5.63169 83.456 5.88769 83.072 5.88769C83.072 5.88769 83.072 5.88769 82.944 5.88769C82.944 5.88769 82.944 5.75969 82.816 5.75969C82.56 5.75969 82.304 5.63169 82.048 5.63169C81.92 5.63169 81.92 5.63169 81.792 5.75969C81.664 5.75969 81.664 5.63169 81.536 5.63169C81.28 5.63169 81.024 5.63169 80.768 5.63169C80.768 5.50369 80.768 5.50369 80.512 5.50369C80.384 5.50369 80.256 5.50369 80.128 5.50369C79.744 5.11969 79.232 5.50369 78.848 5.11969C78.592 4.86369 78.208 4.99169 77.952 4.73569C78.08 4.09569 77.952 3.83969 77.568 3.71169C77.44 3.58369 77.312 3.58369 77.056 3.58369C76.8 3.45569 76.416 3.32769 76.16 3.32769C76.032 3.32769 75.904 3.19969 75.648 3.19969C75.52 3.19969 75.264 3.19969 75.136 3.19969C74.752 3.19969 74.24 3.07169 73.856 2.94369C73.6 2.94369 73.344 2.94369 73.088 2.94369C72.96 2.94369 72.832 3.07169 72.832 3.19969C72.832 2.94369 72.576 2.94369 72.448 2.81569C72.192 2.55969 71.808 2.55969 71.552 2.43169C71.424 2.43169 71.296 2.43169 71.168 2.30369C70.912 2.04769 70.528 2.17569 70.272 1.91969C70.144 1.91969 70.016 1.91969 70.016 1.79169C69.632 1.79169 69.248 1.79169 68.864 1.79169C68.864 1.66369 68.864 1.53569 68.736 1.40769C68.608 1.40769 68.48 1.40769 68.352 1.40769C67.968 1.15169 67.456 1.40769 66.944 1.02369C66.688 1.02369 66.432 1.02369 66.176 1.02369C65.28 0.51169 64.384 1.15169 63.488 0.63969C63.232 0.63969 62.976 0.63969 62.72 0.63969C62.464 0.38369 62.208 0.25569 61.824 0.12769C61.568 0.12769 61.312 0.12769 61.184 0.12769C59.776 0.38369 58.496 0.51169 57.088 0.12769C56.832 0.12769 56.576 -0.000310332 56.448 0.12769C55.936 0.12769 55.552 0.38369 55.168 0.63969C54.912 0.63969 54.656 0.63969 54.4 0.63969C53.632 1.02369 52.736 0.76769 51.968 0.89569C51.84 0.89569 51.712 1.02369 51.456 1.02369C50.816 0.76769 50.176 0.89569 49.536 1.02369C48.896 1.02369 48.128 1.02369 47.488 1.02369C46.976 1.40769 46.208 1.02369 45.696 1.40769C45.568 1.53569 45.568 1.53569 45.44 1.66369C45.44 1.53569 45.44 1.40769 45.44 1.27969C44.672 1.27969 43.904 1.15169 43.136 1.40769C42.752 1.40769 42.368 1.40769 41.984 1.40769C41.728 1.66369 41.344 1.53569 41.088 1.79169C40.832 2.04769 40.448 1.91969 40.192 2.17569C40.064 2.17569 39.936 2.17569 39.808 2.17569C39.552 2.30369 39.424 2.43169 39.296 2.55969C39.04 2.81569 38.656 2.68769 38.4 3.07169C38.272 3.19969 38.144 3.32769 37.888 3.45569C37.888 3.45569 37.76 3.45569 37.76 3.58369V3.71169C37.504 3.71169 37.248 3.71169 36.992 3.83969C36.864 3.96769 36.736 4.09569 36.608 4.22369C36.48 4.35169 36.352 4.35169 36.224 4.35169C36.096 4.35169 36.096 4.47969 36.096 4.60769C35.968 4.60769 35.84 4.60769 35.712 4.73569C35.584 4.73569 35.456 4.73569 35.328 4.86369C34.56 5.24769 33.792 5.11969 33.152 4.86369C32.384 4.86369 31.616 4.86369 30.72 4.86369C30.592 4.86369 30.464 4.99169 30.464 5.11969C30.208 4.99169 29.952 4.99169 29.696 5.11969C29.568 5.11969 29.44 5.11969 29.312 5.11969C29.312 5.11969 29.184 5.11969 29.184 5.24769C29.184 5.37569 29.184 5.37569 29.312 5.50369C29.056 5.50369 28.8 5.50369 28.416 5.50369C28.416 5.63169 28.416 5.75969 28.416 5.88769C28.16 5.88769 27.904 5.88769 27.52 5.88769C27.52 6.01569 27.52 6.14369 27.52 6.27169C27.264 6.27169 27.008 6.27169 26.752 6.27169C27.008 6.78369 27.264 6.52769 27.52 6.27169C27.904 6.27169 28.16 6.14369 28.416 5.88769C28.8 5.88769 29.184 5.88769 29.312 5.50369C29.696 5.50369 30.208 5.50369 30.464 5.11969C30.72 5.37569 30.72 5.50369 30.848 5.63169C30.976 5.75969 31.232 6.01569 31.488 6.14369C31.232 6.39969 31.104 6.65569 31.104 6.91169C30.464 7.29569 30.208 8.19169 29.44 8.57569L29.312 8.44769C29.056 8.19169 28.8 7.93569 28.544 7.80769C28.416 7.67969 28.288 7.67969 28.16 7.67969C27.776 7.42369 27.52 7.67969 27.392 7.93569C27.264 7.93569 27.264 7.93569 27.136 7.93569C26.624 7.93569 26.24 8.19169 26.112 8.70369C25.472 8.95969 24.96 8.06369 24.32 8.70369C24.192 8.83169 24.064 8.95969 23.936 9.08769C23.68 9.34369 23.68 9.72769 23.424 9.98369C23.168 10.2397 23.296 10.6237 22.912 10.7517C22.784 11.0077 22.4 11.0077 22.144 11.1357C22.016 10.8797 21.888 10.8797 21.632 10.7517C21.504 10.7517 21.376 10.7517 21.248 10.7517C20.48 10.4957 19.84 10.3677 19.2 10.8797C18.944 11.0077 18.816 11.1357 18.816 11.2637C18.688 11.3917 18.432 11.5197 18.432 11.6477C18.304 11.7757 18.048 11.9037 18.048 12.0317C17.92 12.1597 17.664 12.2877 17.664 12.4157C17.408 12.5437 17.28 12.6717 17.28 12.7997C17.152 12.9277 16.896 13.0557 16.896 13.1837C16.768 13.3117 16.64 13.4397 16.512 13.5677C16.384 13.6957 16.256 13.8237 16 13.9517C15.616 14.2077 15.104 14.4637 15.104 14.9757C15.232 15.4877 15.744 15.6157 16.256 15.6157C16.64 15.6157 17.024 15.6157 17.536 15.6157C17.664 15.6157 17.792 15.6157 17.792 15.7437C17.664 15.8717 17.408 15.9997 17.152 16.1277C16.768 16.2557 16.256 16.1277 15.872 16.1277C15.36 16.3837 15.36 16.7677 15.36 17.1517C15.488 17.2797 15.744 17.4077 15.872 17.5357C16.128 17.5357 16.256 17.5357 16.512 17.5357C16.896 17.2797 17.536 17.5357 17.92 17.1517C18.048 17.0237 18.176 17.0237 18.304 16.7677C18.432 16.7677 18.688 16.7677 18.816 16.7677C18.944 16.7677 19.072 16.6397 19.2 16.6397C19.328 16.6397 19.456 16.6397 19.584 16.6397H19.712H19.84C19.84 16.6397 19.84 16.5117 19.968 16.5117C20.096 16.5117 20.096 16.5117 20.224 16.5117C20.736 16.5117 21.248 16.6397 21.632 16.2557C22.144 15.7437 22.912 16.2557 23.296 15.8717C23.424 15.7437 23.552 15.7437 23.68 15.7437C23.936 15.7437 24.064 15.8717 24.32 15.9997C24.704 15.9997 25.088 15.8717 25.472 15.6157C25.6 15.6157 25.856 15.7437 25.984 15.7437C27.008 15.7437 28.16 15.8717 29.056 15.1037C29.184 15.1037 29.312 15.1037 29.44 15.1037C30.848 15.7437 32.384 15.7437 33.92 15.4877C33.792 15.4877 33.664 15.6157 33.536 15.6157C33.408 15.6157 33.28 15.6157 33.152 15.6157C33.024 15.6157 32.896 15.7437 32.768 15.8717C31.616 15.1037 31.104 16.3837 30.336 16.6397C30.208 16.7677 30.08 16.7677 29.952 16.7677C29.824 16.7677 29.824 16.8957 29.824 17.0237C29.696 17.0237 29.568 17.0237 29.44 17.1517C29.312 17.2797 29.184 17.2797 29.056 17.2797C28.8 17.4077 28.416 17.4077 28.16 17.6637C27.904 17.9197 27.52 17.7917 27.264 18.0477C27.008 18.3037 26.624 18.1757 26.368 18.4317C26.24 18.5597 26.24 18.5597 26.112 18.5597C25.984 18.5597 25.856 18.6877 25.856 18.8157C25.728 18.8157 25.728 18.8157 25.6 18.8157C25.472 18.9437 25.344 18.9437 25.216 18.9437C24.96 19.1997 24.576 19.0717 24.32 19.3277C24.192 19.4557 24.192 19.4557 24.064 19.3277C23.808 19.3277 23.808 19.4557 23.808 19.5837C23.552 19.5837 23.296 19.5837 23.04 19.7117C22.656 20.0957 22.144 19.7117 21.76 20.0957C21.376 20.4797 20.864 20.0957 20.48 20.4797C20.352 20.4797 20.224 20.6077 20.096 20.4797C19.712 20.8637 19.2 20.4797 18.816 20.8637C18.688 20.8637 18.56 20.9917 18.432 20.8637C18.176 21.1197 17.792 20.9917 17.536 21.2477C17.28 21.5037 16.896 21.3757 16.64 21.7597C16.512 21.8877 16.384 22.0157 16.256 22.1437C16.128 22.2717 16.128 22.2717 16 22.2717C15.744 22.3997 15.616 22.5277 15.488 22.6557C15.36 22.7837 15.104 22.9117 14.976 23.0397C14.848 23.1677 14.72 23.2957 14.464 23.4237C14.336 23.5517 14.208 23.6797 14.08 23.8077C13.952 23.9357 13.824 24.0637 13.696 24.1917C13.568 24.3197 13.44 24.4477 13.312 24.5757C13.184 24.7037 13.056 24.8317 12.928 24.9597C12.8 25.0877 12.672 25.2157 12.544 25.4717C12.416 25.5997 12.16 25.7277 12.16 25.8557C12.032 25.9837 11.776 26.1117 11.776 26.3677C11.52 26.4957 11.52 27.0077 11.264 27.1357C11.136 27.2637 11.008 27.3917 10.88 27.5197C10.752 27.6477 10.624 27.7757 10.496 28.0317C10.24 28.2877 10.24 28.6717 9.98402 28.7997C9.85602 28.9277 9.72802 29.0557 9.60002 29.3117C9.21602 30.2077 9.21602 30.9757 9.60002 31.8717C9.98402 32.2557 9.60002 32.7677 10.112 33.1517C10.24 33.4077 10.496 33.6637 10.752 33.6637C10.624 33.9197 10.624 34.3037 10.496 34.5597C10.496 34.6877 10.496 34.8157 10.496 34.9437C10.368 35.1997 10.368 35.4557 10.368 35.7117C10.24 35.7117 10.24 35.7117 10.112 35.9677C10.112 36.0957 10.112 36.2237 9.98402 36.3517C9.85602 36.6077 9.72802 36.7357 9.85602 36.9917C9.60002 36.9917 9.47202 37.1197 9.34402 37.1197C8.96002 37.5037 9.08802 37.8877 9.21602 38.2717C9.08802 38.2717 8.96002 38.2717 8.83202 38.3997C8.57602 38.6557 8.70402 39.0397 8.44802 39.2957C8.19202 39.5517 8.19202 39.9357 8.06402 40.1917C7.80802 40.3197 7.93602 40.7037 7.68002 40.9597C7.42402 41.2157 7.55202 41.5997 7.16802 41.7277C6.91202 41.9837 7.04002 42.3677 6.78402 42.6237C6.52802 42.8797 6.52802 43.2637 6.40002 43.5197C6.40002 43.6477 6.40002 43.7757 6.40002 43.9037C6.01602 44.4157 6.40002 45.0557 6.01602 45.5677C5.63202 45.9517 5.88802 46.4637 5.63202 46.8477C5.37602 47.1037 5.37602 47.4877 5.24802 47.7437C5.24802 47.8717 5.24802 47.9997 5.24802 48.1277C4.99202 48.3837 5.12002 48.7677 4.86402 49.0237C4.35202 49.5357 4.86402 50.3037 4.48002 50.6877C4.22402 50.9437 4.22402 51.1997 4.35202 51.4557L4.48002 51.5837C4.48002 51.8397 4.35202 52.2237 4.09602 52.3517C4.09602 52.4797 4.09602 52.6077 4.09602 52.7357C4.09602 55.6797 4.09602 58.7517 4.09602 61.6957C4.09602 61.8237 4.09602 61.9517 4.09602 62.0797C4.09602 62.2077 4.22402 62.3357 4.35202 62.2077C4.35202 62.3357 4.35202 62.4637 4.35202 62.5917L4.48002 62.8477H4.22402L4.09602 62.9757C4.09602 63.1037 4.09602 63.2317 4.09602 63.3597C4.09602 64.1277 4.09602 64.8957 4.09602 65.6637C4.09602 66.0477 4.09602 66.4317 3.71202 66.8157C3.71202 67.1997 3.71202 67.7117 3.71202 68.0957C3.45602 68.4797 3.45602 68.9917 3.71202 69.3757C3.71202 69.6317 3.71202 69.8877 3.71202 70.1437C3.71202 70.1437 3.84002 70.1437 3.84002 70.2717C3.84002 70.3997 3.84002 70.5277 3.71202 70.6557C3.71202 70.7837 3.71202 70.9117 3.71202 71.0397C4.09602 71.4237 3.96802 71.9357 4.09602 72.3197C4.09602 73.0877 4.09602 73.7277 4.09602 74.4957C4.09602 74.6237 4.09602 74.7517 4.09602 74.8797C4.60802 75.5197 3.96802 76.4157 4.48002 77.0557C4.48002 77.3117 4.48002 77.5677 4.48002 77.8237C4.73602 78.0797 4.60802 78.4637 4.86402 78.7197C4.86402 78.8477 4.86402 78.9757 4.86402 79.1037C5.24802 79.4877 4.86402 80.1277 5.24802 80.3837C5.63202 80.7677 5.24802 81.2797 5.63202 81.6637C5.63202 81.7917 5.63202 81.9197 5.63202 82.0477C5.76002 82.1757 5.88802 82.4317 6.01602 82.5597C5.88802 82.8157 5.88802 83.0717 6.01602 83.3277C6.01602 83.4557 6.01602 83.5837 6.01602 83.7117C6.40002 84.0957 6.01602 84.6077 6.40002 84.9917C6.40002 85.1197 6.40002 85.2477 6.40002 85.3757C6.52802 85.7597 6.65602 85.7597 6.78402 85.6317C6.78402 86.0157 6.78402 86.5277 6.78402 86.9117H6.91202V87.0397C7.04002 87.5517 6.78402 88.0637 7.04002 88.5757C7.04002 88.7037 7.16802 88.8317 7.04002 88.9597C7.16802 89.0877 7.29602 89.2157 7.42402 89.0877L7.29602 89.2157C7.16802 89.4717 7.16802 89.7277 7.42402 89.8557C7.80802 90.2397 7.42402 90.7517 7.80802 91.1357C7.93602 91.2637 8.06402 91.5197 8.19202 91.7757C8.19202 91.7757 8.19202 91.9037 8.32002 91.9037C8.32002 92.0317 8.32002 92.1597 8.32002 92.4157C8.44802 92.4157 8.44802 92.4157 8.57602 92.4157C8.57602 92.4157 8.57602 92.5437 8.70402 92.5437C8.57602 92.7997 8.57602 93.0557 8.83202 93.3117C8.83202 93.4397 8.83202 93.5677 8.83202 93.6957C8.96002 93.8237 9.08802 94.0797 9.21602 94.2077C9.21602 94.3357 9.21602 94.4637 9.21602 94.5917C9.47202 94.8477 9.34402 95.2317 9.60002 95.4877C9.85602 95.7437 9.72802 96.1277 9.98402 96.3837C10.24 96.6397 10.112 97.0237 10.368 97.2797C10.496 97.4077 10.624 97.5357 10.752 97.7917C11.264 98.0477 11.52 98.4317 11.648 99.0717C11.776 99.1997 11.904 99.3277 12.032 99.4557C12.16 99.4557 12.288 99.4557 12.416 99.4557C12.416 99.5837 12.416 99.7117 12.416 99.8397C12.544 99.8397 12.672 99.8397 12.8 99.8397C12.8 99.9677 12.8 100.096 12.8 100.224C13.312 100.352 13.824 100.608 14.08 101.12C14.208 101.248 14.336 101.376 14.592 101.504C14.976 101.504 15.232 101.632 15.36 102.016C15.488 102.144 15.616 102.272 15.872 102.4C16.256 102.4 16.512 102.528 16.64 102.784C17.28 102.784 17.92 102.656 18.304 103.296C18.432 103.424 18.56 103.552 18.688 103.68C19.2 103.936 19.456 104.32 19.584 104.832C19.712 104.96 19.84 105.088 19.968 105.216C20.096 105.344 20.224 105.472 20.352 105.728C20.48 105.856 20.608 105.984 20.736 106.112C20.864 106.24 20.992 106.368 21.12 106.496C21.248 106.624 21.376 106.752 21.504 106.88C21.504 107.008 21.504 107.136 21.504 107.264C21.632 107.264 21.76 107.264 21.888 107.264C21.888 107.392 21.888 107.52 21.888 107.648C22.016 107.648 22.144 107.648 22.272 107.648C22.272 107.776 22.272 107.904 22.272 108.032H22.528H22.784C22.784 108.16 22.784 108.288 22.784 108.416C22.912 108.544 23.04 108.672 23.296 108.8C23.424 108.8 23.552 108.8 23.68 108.8C23.808 108.928 23.936 109.056 24.064 109.184C24.192 109.312 24.32 109.44 24.576 109.568C24.704 109.568 24.832 109.568 24.96 109.568C25.088 109.696 25.216 109.824 25.472 109.952C25.6 109.952 25.728 109.952 25.856 109.952C25.984 110.08 26.112 110.208 26.368 110.336C26.496 110.336 26.624 110.336 26.752 110.336C27.008 110.592 27.392 110.464 27.648 110.72C27.776 110.72 27.904 110.72 28.032 110.72C28.288 110.848 28.416 110.976 28.672 110.848C28.672 110.976 28.8 111.104 28.928 111.104C29.184 111.104 29.44 111.104 29.696 111.104C30.08 111.104 30.336 110.976 30.592 110.592C30.464 110.592 30.336 110.592 30.208 110.592C29.696 110.592 29.312 110.336 28.928 110.208C27.008 109.568 25.216 108.672 23.424 107.648C23.552 107.52 23.68 107.392 23.808 107.136C24.832 107.136 25.856 107.136 26.752 107.136C27.52 107.136 28.16 107.392 28.288 108.288C28.416 109.184 29.056 109.44 29.696 109.568C30.208 109.696 30.592 109.696 31.104 109.824C31.488 109.824 32 109.824 32.256 110.208C32.768 110.336 33.024 110.592 33.152 111.104C33.536 111.232 34.048 111.104 34.432 111.616C34.56 111.744 34.816 111.872 34.944 112H35.2H35.456C35.584 112.128 35.712 112.128 35.84 112.128C35.84 112.256 35.84 112.384 35.968 112.512C36.224 112.512 36.48 112.64 36.736 112.64C36.736 112.768 36.736 112.896 36.864 112.896C37.12 112.896 37.376 113.024 37.632 113.024C37.632 113.152 37.632 113.28 37.632 113.408C38.016 113.408 38.272 113.536 38.528 113.792C38.912 113.792 39.168 113.92 39.424 114.176C39.808 114.176 40.064 114.304 40.32 114.56C40.832 114.688 41.216 114.688 41.6 115.072C41.856 115.072 41.984 115.072 42.24 115.072C42.24 115.072 42.24 115.072 42.24 115.2C42.624 115.712 43.264 115.712 43.776 115.968C44.16 116.352 44.672 116.096 45.056 116.352C45.44 116.736 45.952 116.48 46.336 116.736C46.592 116.992 46.976 116.992 47.36 117.12H47.488L47.616 117.248C48 117.632 48.512 117.248 48.896 117.632C49.28 118.016 49.792 117.632 50.176 118.016C50.56 118.4 51.072 118.144 51.456 118.4C51.584 118.528 51.712 118.656 51.84 118.656C52.224 118.656 52.736 118.528 53.12 118.912C53.632 119.424 54.4 118.912 54.784 119.296C55.04 119.296 55.296 119.296 55.68 119.296C57.344 119.552 59.008 119.296 60.8 119.296C61.568 118.784 62.464 118.912 63.36 118.784C63.872 118.272 64.512 118.4 65.024 118.4C65.536 118.016 66.176 118.016 66.688 118.016C66.816 117.888 66.944 117.76 67.2 117.632C68.352 117.632 69.376 117.632 70.528 117.632C70.528 117.76 70.656 117.888 70.656 117.888C72.064 117.888 73.472 117.888 74.88 117.888C75.392 117.504 76.032 117.888 76.544 117.504C76.672 117.504 76.8 117.504 76.928 117.504C77.312 117.12 77.824 117.504 78.208 117.12C78.336 117.12 78.464 116.992 78.592 117.12C78.848 116.992 79.232 116.992 79.488 116.736C79.744 116.48 80.128 116.608 80.384 116.352V116.224C80.512 116.224 80.64 116.224 80.768 116.224C80.896 116.096 81.024 115.968 81.28 115.84C81.408 115.84 81.536 115.84 81.664 115.712C81.792 115.584 81.92 115.456 82.176 115.328C82.304 115.328 82.432 115.328 82.56 115.328C82.688 115.2 82.944 115.072 83.072 114.944C83.072 114.944 83.2 114.944 83.2 114.816C83.2 114.688 83.2 114.688 83.072 114.56C82.816 114.56 82.56 114.56 82.304 114.56C81.92 114.944 81.408 115.2 80.896 115.328C80.64 115.456 80.256 115.456 80 115.84C79.232 116.096 78.592 116.352 77.824 116.608C76.8 116.864 75.648 117.376 74.496 117.248C74.624 116.48 75.52 116.224 75.776 115.456C76.032 115.456 76.16 115.328 76.288 115.072C76.672 114.816 76.928 114.56 77.312 114.432C77.824 114.176 78.336 114.048 78.72 114.304C79.744 115.072 80.768 114.56 81.792 114.176C81.792 114.048 81.92 113.92 81.92 113.792C82.176 113.792 82.304 113.664 82.56 113.664C82.688 113.536 82.816 113.408 82.944 113.28C83.072 113.152 83.328 113.024 83.456 112.896C84.224 112.256 84.224 112.256 84.736 112.896C85.12 112.896 85.504 112.896 85.888 112.768C86.016 112.64 86.144 112.512 86.272 112.384C86.4 112.256 86.528 112.128 86.656 112C86.656 111.616 86.784 111.36 87.168 111.232C87.296 111.104 87.424 110.848 87.552 110.72C87.552 110.592 87.68 110.336 87.68 110.208C87.808 110.08 88.064 110.08 88.192 109.952C88.448 109.824 88.704 109.696 88.832 109.568C89.6 109.056 90.624 109.696 91.392 109.184L91.52 109.056H91.648C91.904 108.928 92.288 108.928 92.672 108.672C92.8 108.544 92.8 108.416 92.8 108.288C93.056 108.288 93.184 108.16 93.44 108.16C93.44 107.904 93.568 107.776 93.824 107.776C93.952 107.52 94.08 107.136 94.336 107.008C94.336 106.752 94.464 106.624 94.72 106.496C94.72 106.24 94.848 106.112 95.104 105.984C95.232 105.6 95.488 105.216 95.616 104.832C95.744 104.832 95.872 104.704 96 104.704C96 104.448 96.128 104.32 96.384 104.32C96.768 103.808 97.28 103.168 98.048 102.912C98.304 102.528 98.688 102.016 98.944 101.632C99.2 101.632 99.328 101.504 99.328 101.248C99.456 101.248 99.456 101.12 99.456 100.992C99.712 100.864 99.712 100.736 99.712 100.48C99.968 100.096 99.968 99.4557 100.48 99.3277C101.12 99.0717 101.376 98.5597 101.632 97.9197C102.016 97.1517 102.4 96.3837 102.784 95.6157C103.168 94.7197 103.296 93.5677 104.704 93.4397C104.96 93.4397 105.088 93.0557 105.216 92.7997C105.6 92.2877 106.112 91.9037 106.496 91.5197C106.496 91.2637 106.752 91.1357 106.88 91.1357C106.88 90.8797 107.008 90.7517 107.008 90.4957C107.136 90.4957 107.264 90.3677 107.392 90.3677C107.52 90.2397 107.648 90.1117 107.776 89.8557C107.648 89.4717 107.52 88.9597 108.288 88.9597C108.416 88.8317 108.544 88.7037 108.672 88.5757C108.672 88.3197 108.8 88.1917 109.056 88.0637C109.184 87.5517 109.568 87.1677 109.952 86.7837C109.952 86.3997 110.08 86.0157 110.08 85.6317C110.464 85.6317 110.72 85.6317 110.976 85.2477C111.104 85.1197 111.232 84.9917 111.36 84.8637C111.488 84.8637 111.616 84.8637 111.744 84.7357C111.872 84.6077 112 84.4797 112.128 84.2237C112.256 84.0957 112.384 83.8397 112.512 83.7117C112.64 83.4557 112.768 83.0717 113.024 82.9437C113.024 82.6877 113.024 82.4317 113.024 82.0477C113.152 82.0477 113.28 82.0477 113.408 82.0477C113.408 81.7917 113.536 81.6637 113.792 81.5357C113.92 81.0237 114.176 80.5117 114.304 79.8717C114.432 79.8717 114.56 79.7437 114.56 79.7437C115.072 79.4877 114.688 78.8477 115.072 78.4637C115.328 78.2077 115.328 77.8237 115.456 77.4397C115.456 77.3117 115.456 77.1837 115.456 77.1837C115.456 77.0557 115.456 76.9277 115.456 76.7997C115.584 75.7757 115.968 74.8797 115.84 73.8557C116.096 73.4717 116.096 73.0877 116.224 72.5757C116.224 72.4477 116.352 72.3197 116.352 72.1917C116.352 72.1917 116.352 72.0637 116.48 72.0637C116.864 73.4717 115.968 74.7517 115.84 76.1597C115.84 76.2877 115.84 76.5437 115.84 76.6717C115.84 76.7997 115.84 76.7997 115.968 76.9277C116.096 77.1837 116.224 77.4397 116.352 77.6957C116.48 77.8237 116.48 77.9517 116.608 78.0797C116.736 78.3357 116.736 78.5917 116.864 78.7197C116.864 78.8477 116.992 78.9757 116.992 79.2317C117.12 79.4877 117.248 79.7437 117.248 79.8717C117.248 79.9997 117.376 80.1277 117.376 80.3837C117.504 80.7677 117.504 81.1517 117.632 81.6637C117.632 81.7917 117.76 82.0477 117.76 82.1757C117.888 82.5597 118.016 83.0717 118.272 83.4557H118.4C118.4 83.9677 118.4 84.4797 118.4 85.1197C118.528 85.1197 118.656 85.1197 118.784 85.1197C119.04 85.1197 119.296 85.1197 119.552 85.1197C119.68 84.9917 119.808 84.8637 119.936 84.7357C119.936 84.6077 119.936 84.4797 120.064 84.3517C120.064 84.3517 120.064 84.4797 120.192 84.4797C120.32 84.4797 120.448 84.4797 120.448 84.4797C120.576 84.4797 120.832 84.3517 120.96 84.2237C121.088 84.0957 121.088 84.0957 121.216 83.9677C121.344 83.8397 121.472 83.7117 121.6 83.4557C121.728 83.3277 121.728 83.0717 121.728 82.9437C121.6 82.0477 121.472 81.2797 122.112 80.5117C122.24 80.3837 122.24 80.1277 122.24 79.9997C122.24 79.7437 122.24 79.3597 122.112 79.1037C121.856 77.4397 121.856 75.7757 122.112 74.1117C121.984 73.9837 121.984 73.8557 122.112 73.7277C122.752 74.4957 122.88 74.3677 122.752 74.1117ZM86.912 108.416C86.912 108.16 87.04 108.032 87.168 107.904C87.04 108.032 87.04 108.288 86.912 108.416ZM61.824 113.792C61.696 113.792 61.696 113.792 61.824 113.792V113.792ZM11.008 44.7997C11.008 44.7997 11.136 44.7997 11.008 44.7997C11.136 44.7997 11.136 44.7997 11.008 44.7997C11.008 44.7997 11.136 44.7997 11.008 44.7997ZM27.264 24.3197C27.264 24.4477 27.264 24.4477 27.264 24.5757C27.264 24.5757 27.264 24.4477 27.264 24.3197ZM51.584 7.67969H51.712C51.584 7.80769 51.584 7.80769 51.584 7.67969C51.584 7.80769 51.584 7.80769 51.584 7.67969C51.584 7.80769 51.584 7.80769 51.584 7.67969ZM93.184 20.9917C93.312 20.9917 93.312 20.9917 93.184 20.9917C93.312 20.9917 93.312 20.9917 93.184 20.9917C93.312 20.9917 93.312 20.9917 93.184 20.9917ZM51.712 17.2797C51.712 17.1517 51.584 16.8957 51.584 16.7677C51.712 16.8957 51.84 17.0237 51.712 17.2797ZM27.264 29.0557C27.264 28.9277 27.264 28.9277 27.264 29.0557C27.264 28.9277 27.264 28.9277 27.264 29.0557C27.264 28.9277 27.264 28.9277 27.264 29.0557ZM24.32 43.5197C24.192 43.5197 24.192 43.5197 24.32 43.5197C24.192 43.5197 24.192 43.5197 24.32 43.5197ZM77.568 16.3837C77.696 16.3837 77.696 16.3837 77.824 16.3837C77.696 16.5117 77.696 16.7677 77.696 16.8957C77.44 16.7677 77.44 16.5117 77.568 16.3837ZM58.752 102.784C58.752 102.656 58.752 102.656 58.752 102.784C58.752 102.656 58.752 102.656 58.752 102.784ZM40.576 85.8877C40.576 85.8877 40.576 86.0157 40.448 86.0157C40.448 86.0157 40.448 85.8877 40.576 85.8877ZM28.8 39.9357V39.8077C28.8 39.8077 28.8 39.8077 28.8 39.9357ZM47.744 52.6077C47.744 52.4797 47.744 52.4797 47.744 52.6077C47.744 52.4797 47.744 52.6077 47.744 52.6077ZM56.704 55.5517C56.704 55.5517 56.704 55.4237 56.576 55.4237C56.576 55.5517 56.704 55.5517 56.704 55.5517ZM38.656 50.3037C38.656 50.4317 38.656 50.4317 38.784 50.5597C38.656 50.4317 38.656 50.4317 38.656 50.3037ZM41.216 54.6557C41.344 54.6557 41.344 54.6557 41.216 54.6557C41.344 54.6557 41.344 54.6557 41.216 54.6557ZM74.752 71.8077C74.752 71.6797 74.752 71.6797 74.752 71.8077C74.752 71.6797 74.752 71.6797 74.752 71.8077ZM59.008 57.5997C58.88 57.5997 58.752 57.5997 58.752 57.5997C58.88 57.4717 59.136 57.4717 59.264 57.4717C59.136 57.4717 59.008 57.5997 59.008 57.5997ZM25.6 62.7197C25.6 62.8477 25.6 62.8477 25.6 62.8477C25.6 62.7197 25.472 62.7197 25.6 62.7197C25.472 62.7197 25.472 62.7197 25.6 62.7197ZM74.624 70.3997C74.624 70.2717 74.624 70.1437 74.624 70.0157C74.624 70.1437 74.624 70.2717 74.624 70.3997ZM86.784 47.7437V47.8717C86.4 48.1277 86.144 47.7437 85.76 47.7437C85.632 47.7437 85.632 47.7437 85.632 47.6157C86.144 47.7437 86.528 47.7437 86.784 47.7437ZM61.696 45.6957C61.824 45.6957 61.824 45.6957 61.696 45.6957C61.824 45.6957 61.824 45.6957 61.696 45.6957ZM84.608 57.0877C84.736 57.0877 84.736 57.0877 84.608 57.0877C84.736 57.0877 84.736 57.0877 84.608 57.0877C84.736 57.0877 84.736 57.0877 84.608 57.0877ZM101.632 50.4317C101.632 50.4317 101.632 50.3037 101.632 50.4317V50.4317ZM53.12 44.4157C53.12 44.4157 52.992 44.4157 53.12 44.4157C53.12 44.2877 53.12 44.2877 53.12 44.2877C53.12 44.4157 53.12 44.4157 53.12 44.4157ZM43.136 25.0877C43.136 25.2157 43.008 25.2157 43.136 25.0877C43.008 25.2157 43.008 25.2157 43.136 25.0877C43.008 25.2157 43.008 25.2157 43.008 25.2157C43.008 25.2157 43.008 25.2157 43.136 25.0877C43.008 25.2157 43.008 25.2157 43.136 25.0877C43.008 25.2157 43.008 25.2157 43.136 25.0877ZM77.056 71.1677C77.184 71.2957 77.184 71.4237 77.184 71.5517C77.184 71.5517 77.056 71.4237 77.056 71.1677ZM84.736 57.2157C84.736 57.0877 84.736 57.0877 84.736 57.2157C84.736 57.0877 84.736 57.2157 84.736 57.2157ZM98.688 66.3037C98.816 66.4317 98.816 66.5597 98.944 66.6877H98.816C98.688 66.6877 98.56 66.5597 98.56 66.4317C98.688 66.4317 98.688 66.3037 98.688 66.3037ZM58.112 23.5517C58.112 23.5517 58.112 23.6797 58.24 23.6797C58.112 23.6797 58.112 23.6797 58.112 23.5517C58.112 23.6797 58.112 23.5517 58.112 23.5517ZM45.184 98.4317C45.184 98.4317 45.056 98.4317 45.184 98.4317V98.4317ZM59.136 104.832C59.136 104.832 59.264 104.832 59.136 104.832C59.264 104.832 59.264 104.832 59.136 104.832C59.264 104.832 59.136 104.832 59.136 104.832ZM68.224 93.1837C68.096 93.0557 67.968 92.9277 67.84 92.7997C68.48 92.6717 68.992 92.2877 69.12 91.6477C69.12 91.5197 68.992 91.2637 69.376 91.3917C69.632 91.2637 70.016 91.1357 70.272 91.1357C70.144 91.2637 69.888 91.3917 69.76 91.5197C69.504 91.9037 69.504 92.1597 70.016 92.2877C69.248 92.4157 68.608 92.5437 68.224 93.1837ZM92.8 69.2477C92.928 69.2477 92.928 69.3757 92.928 69.5037C92.928 69.6317 92.8 69.7597 92.672 69.7597C92.544 69.7597 92.416 69.7597 92.416 69.7597C92.672 69.7597 92.8 69.5037 92.8 69.2477ZM57.216 19.9677C57.344 20.0957 57.472 20.0957 57.6 20.0957C57.472 20.0957 57.344 20.0957 57.216 19.9677ZM28.16 76.7997C28.032 76.7997 28.032 76.7997 28.16 76.7997C28.032 76.6717 28.16 76.6717 28.16 76.7997C28.16 76.6717 28.16 76.6717 28.16 76.7997ZM36.736 104.448C36.736 104.448 36.736 104.576 36.736 104.448C36.736 104.576 36.736 104.576 36.736 104.448C36.736 104.576 36.736 104.576 36.736 104.448ZM39.168 100.992C39.168 101.248 39.168 101.504 39.04 101.632C39.04 101.376 39.04 101.12 39.168 100.992ZM38.912 98.6877C39.04 98.6877 39.04 98.6877 39.168 98.6877C39.04 98.6877 38.912 98.6877 38.912 98.6877ZM63.488 93.1837C63.616 93.1837 63.616 93.1837 63.616 93.3117C63.616 93.1837 63.488 93.1837 63.488 93.1837ZM13.568 43.5197C13.696 43.5197 13.696 43.5197 13.568 43.5197C13.696 43.5197 13.696 43.5197 13.568 43.5197ZM18.432 89.2157C18.304 89.2157 18.304 89.0877 18.432 89.2157C18.304 89.0877 18.304 89.0877 18.432 89.2157C18.304 89.0877 18.304 89.2157 18.432 89.2157ZM32.768 105.344C32.768 105.344 32.896 105.344 32.768 105.344C32.896 105.344 32.896 105.344 32.768 105.344C32.896 105.344 32.896 105.344 32.768 105.344ZM39.168 100.608C39.168 100.608 39.296 100.608 39.168 100.608V100.608ZM40.832 95.8717C40.96 95.8717 40.96 95.8717 40.832 95.8717V95.8717ZM41.216 98.0477C41.088 97.9197 41.088 97.9197 41.216 98.0477C41.088 97.9197 41.088 97.9197 41.216 98.0477ZM88.576 69.8877L88.448 69.7597C88.448 69.8877 88.576 69.8877 88.576 69.8877ZM108.032 43.9037C108.032 44.1597 108.032 44.2877 108.032 44.5437C107.904 44.2877 107.904 44.0317 108.032 43.9037ZM99.456 27.6477L99.328 27.5197C99.328 27.5197 99.456 27.5197 99.456 27.6477ZM71.936 29.9517C72.064 29.9517 72.064 29.9517 71.936 29.9517C72.064 29.9517 72.064 29.9517 71.936 29.9517C72.064 29.9517 72.064 29.9517 71.936 29.9517ZM39.68 21.7597C39.552 21.7597 39.552 21.7597 39.68 21.7597C39.552 21.7597 39.552 21.7597 39.68 21.7597ZM23.552 85.1197C23.552 85.2477 23.168 85.2477 23.04 85.2477C23.168 85.1197 23.296 85.1197 23.552 85.1197ZM41.728 107.392C41.728 107.264 41.856 107.264 41.728 107.392V107.392ZM41.856 109.184C41.856 109.184 41.728 109.056 41.856 109.184C41.728 109.056 41.728 109.056 41.856 109.184C41.856 109.056 41.856 109.184 41.856 109.184ZM54.016 109.824C54.016 109.824 54.016 109.696 54.144 109.696C54.144 109.696 54.144 109.696 54.272 109.696C54.144 109.824 54.016 109.824 54.016 109.824ZM21.376 28.5437C21.248 28.5437 21.248 28.5437 21.376 28.5437V28.5437ZM15.36 93.3117C15.36 93.4397 15.36 93.4397 15.36 93.3117C15.36 93.4397 15.36 93.3117 15.36 93.3117ZM67.712 104.064C66.816 103.936 65.92 103.808 65.024 104.064C64.896 104.192 64.64 104.32 64.64 104.448C64.512 104.448 64.512 104.448 64.384 104.448C64.384 104.32 64.384 104.192 64.384 104.192C64 103.552 63.36 104.064 62.848 103.808C63.36 103.936 63.488 103.808 63.616 103.424C64.256 103.808 64.896 103.808 65.664 103.68C65.792 103.552 66.048 103.552 66.304 103.552C66.432 103.68 66.688 103.68 66.944 103.552H67.072H67.328C67.456 103.552 67.584 103.552 67.712 103.68C67.968 103.808 68.224 104.064 68.608 104.192C68.736 104.192 68.864 104.192 68.992 104.192C68.992 104.192 68.992 104.32 68.992 104.448C68.48 104.192 68.096 104.192 67.712 104.064ZM91.648 99.9677C91.648 99.8397 91.648 99.8397 91.648 99.8397C91.776 99.8397 91.776 99.8397 91.904 99.7117C91.776 99.8397 91.776 99.9677 91.648 99.9677ZM98.816 83.4557C98.816 83.4557 98.944 83.4557 98.816 83.4557C98.944 83.4557 98.816 83.4557 98.816 83.4557ZM73.216 18.6877L73.088 18.5597C73.088 18.5597 73.216 18.5597 73.216 18.6877ZM63.104 11.6477C63.104 11.6477 62.976 11.6477 63.104 11.6477C62.976 11.6477 62.976 11.6477 63.104 11.6477C62.976 11.6477 62.976 11.6477 63.104 11.6477C62.976 11.6477 62.976 11.6477 63.104 11.6477C62.976 11.5197 62.976 11.5197 63.104 11.6477C62.976 11.5197 63.104 11.5197 63.104 11.6477ZM40.832 7.16769C40.96 7.03969 40.96 6.91169 41.088 6.78369L41.216 6.65569C41.472 6.65569 41.6 6.78369 41.6 7.03969C41.6 7.16769 41.6 7.29569 41.728 7.42369C41.472 7.29569 41.216 7.29569 40.832 7.16769ZM5.63202 61.4397C5.50402 61.4397 5.37602 61.4397 5.37602 61.3117C5.50402 61.3117 5.63202 61.3117 5.63202 61.4397ZM23.424 103.936C23.424 104.064 23.424 104.064 23.424 103.936C23.424 104.064 23.424 103.936 23.424 103.936ZM43.008 110.336C43.008 110.464 43.008 110.464 43.008 110.336V110.336ZM76.672 105.088C76.672 104.96 76.672 104.96 76.672 104.832C76.672 104.832 76.672 104.832 76.8 104.832C76.672 104.96 76.672 104.96 76.672 105.088ZM93.056 101.888C93.056 101.888 93.056 101.76 92.928 101.76C93.056 101.76 93.056 101.76 93.184 101.76L93.056 101.888ZM87.296 8.19169C87.296 8.06369 87.296 8.06369 87.296 8.19169C87.296 8.06369 87.296 8.06369 87.296 8.19169C87.296 8.06369 87.296 8.06369 87.296 8.19169ZM21.76 94.3357C21.76 94.3357 21.888 94.3357 21.76 94.3357C21.888 94.4637 21.888 94.5917 21.888 94.5917C21.888 94.4637 21.76 94.4637 21.76 94.3357ZM119.296 49.0237C119.04 49.0237 118.912 49.0237 118.784 48.8957C118.912 48.8957 119.168 49.0237 119.296 49.0237ZM36.48 5.11969V4.99169C36.48 5.11969 36.48 5.11969 36.48 5.11969ZM112.896 82.5597C113.024 82.5597 113.024 82.4317 113.152 82.4317V82.5597L113.28 82.6877C113.152 82.5597 113.024 82.5597 112.896 82.5597Z" fill="#C42F42"/>
<path d="M11.0081 14.5926C11.2641 14.4646 11.3921 14.3366 11.5201 14.0806C11.6481 13.9526 11.9041 13.8246 11.9041 13.5686C12.0321 13.4406 12.2881 13.3126 12.4161 13.1846C12.6721 12.9286 13.0561 12.9286 13.3121 13.1846C13.4401 13.3126 13.5681 13.5686 13.8241 13.5686C14.4641 14.0806 14.7201 13.6966 15.1041 13.1846C15.2321 13.0566 15.3601 12.9286 15.4881 12.6726C15.7441 12.4166 15.7441 12.0326 16.0001 11.7766C16.2561 11.5206 16.2561 11.1366 16.3841 10.8806C16.3841 10.7526 16.3841 10.6246 16.3841 10.4966C16.3841 10.4966 16.5121 10.4966 16.5121 10.3686C16.5121 10.2406 16.5121 10.2406 16.3841 10.1126C16.2561 9.9846 16.1281 9.9846 16.0001 10.1126C15.8721 10.1126 15.7441 10.1126 15.6161 10.1126C15.3601 10.3686 14.9761 10.2406 14.7201 10.4966C14.5921 10.6246 14.4641 10.6246 14.4641 10.6246C14.2081 10.7526 14.0801 10.8806 13.9521 11.0086C13.8241 11.1366 13.8241 11.1366 13.6961 11.1366C13.0561 11.2646 12.9281 11.3926 12.8001 11.5206C12.5441 11.9046 12.1601 11.7766 11.9041 12.0326C11.6481 12.2886 11.2641 12.1606 11.1361 12.4166C10.8801 12.6726 10.4961 12.6726 10.2401 12.9286C10.1121 13.0566 9.85608 13.1846 9.72808 13.3126C9.47208 14.4646 9.98408 14.8486 11.0081 14.5926Z" fill="#C42F42"/>
<path d="M8.0639 16.6399C8.1919 16.5119 8.3199 16.3839 8.4479 16.1279C8.4479 15.9999 8.4479 15.8719 8.5759 15.7439C8.7039 15.6159 8.8319 15.4879 8.9599 15.3599C8.9599 15.2319 8.9599 15.1039 9.0879 14.9759C9.0879 14.5919 8.9599 14.4639 8.5759 14.5919C8.4479 14.7199 8.3199 14.8479 8.1919 14.9759C7.9359 15.1039 7.8079 15.2319 7.6799 15.3599H7.5519C7.5519 15.4879 7.4239 15.6159 7.2959 15.6159C7.1679 15.7439 7.0399 15.7439 6.9119 15.7439C6.6559 15.8719 6.5279 15.9999 6.3999 16.1279C6.7839 17.4079 7.4239 16.8959 8.0639 16.6399Z" fill="#C42F42"/>
<path d="M114.048 100.607C113.792 100.607 113.536 100.607 113.408 100.607C112.896 100.863 113.152 101.247 113.024 101.631C113.024 101.631 113.024 101.759 113.152 101.759C113.024 101.759 113.024 101.759 112.896 101.759C112.768 101.759 112.64 101.759 112.512 101.631C112.384 101.759 112.256 101.759 112.128 101.759C111.872 101.887 111.872 102.015 112 102.143C111.872 102.143 111.744 102.143 111.616 102.143C111.488 102.399 111.104 102.527 110.848 102.655C110.72 102.911 110.592 103.039 110.464 103.039C110.464 103.295 110.464 103.551 110.464 103.807C110.592 103.935 110.72 104.063 110.976 104.191C111.232 104.063 111.488 103.935 111.744 103.935C111.744 103.679 111.872 103.551 112.128 103.423C112.512 103.295 113.024 103.167 113.408 103.039C113.536 102.911 113.664 102.783 113.792 102.655C113.792 102.527 113.792 102.399 113.792 102.399C113.92 102.399 114.048 102.399 114.176 102.271C114.432 102.015 114.304 101.631 114.688 101.375C114.816 100.991 114.304 100.863 114.048 100.607Z" fill="#C42F42"/>
<path d="M120.064 94.5919C119.936 94.5919 119.808 94.7199 119.68 94.5919C119.296 94.9759 119.296 95.3599 119.68 95.8719C119.808 95.9999 119.936 95.9999 120.064 95.8719C120.192 95.7439 120.448 95.6159 120.448 95.3599C120.448 95.2319 120.448 95.1039 120.576 94.9759C120.704 94.5919 120.448 94.4639 120.064 94.5919Z" fill="#C42F42"/>
<path d="M11.9041 20.096C11.7761 20.096 11.6481 20.096 11.5201 20.096C11.1361 20.352 11.0081 20.608 11.5201 20.992C11.7761 20.736 12.1601 20.864 12.4161 20.608C12.5441 20.096 12.2881 19.968 11.9041 20.096Z" fill="#C42F42"/>
<path d="M8.57617 20.992C8.57617 21.12 8.57617 21.248 8.57617 21.248C8.96017 21.632 9.34417 21.632 9.85617 21.248C9.85617 21.248 9.85617 21.248 9.98417 21.12C9.98417 20.992 9.98417 20.992 9.85617 20.864C9.72817 20.736 9.60017 20.608 9.34417 20.48C9.21617 20.48 9.08817 20.48 9.08817 20.48C8.83217 20.736 8.70417 20.864 8.57617 20.992Z" fill="#C42F42"/>
<path d="M115.84 91.2637C115.712 91.2637 115.584 91.2637 115.456 91.2637C115.456 91.0077 115.456 90.7517 115.456 90.3677C115.072 90.4957 115.072 90.8797 115.2 91.2637C115.2 91.9037 115.072 92.6717 115.072 93.3117C115.072 93.4397 115.2 93.5677 115.328 93.5677C115.456 93.5677 115.584 93.5677 115.712 93.4397C116.096 93.0557 116.096 92.5437 115.968 92.0317C115.968 91.9037 116.096 91.7757 116.096 91.6477C115.84 91.5197 115.84 91.3917 115.84 91.2637Z" fill="#C42F42"/>
<path d="M105.728 97.9195C104.96 97.4075 104.704 97.5355 104.32 98.3035C103.936 99.1995 103.552 99.9675 103.168 100.864C102.784 101.504 102.272 102.016 101.504 101.888C100.48 101.76 99.968 102.272 99.584 103.168C99.456 103.68 99.072 104.064 98.816 104.448C98.816 104.576 98.816 104.704 98.688 104.832C98.432 105.088 98.56 105.471 98.304 105.855C98.304 105.983 98.304 106.112 98.304 106.112C98.304 106.112 98.176 106.112 98.176 106.24C98.176 106.368 98.176 106.367 98.304 106.495C98.688 106.623 99.072 106.496 99.456 106.368C99.584 106.24 99.712 106.112 99.84 105.984C99.968 105.856 100.096 105.728 100.224 105.6C100.352 105.472 100.48 105.343 100.608 105.215C100.736 105.087 100.864 104.96 100.992 104.832C101.12 104.704 101.248 104.576 101.376 104.448C101.504 104.32 101.632 104.191 101.76 103.935C101.888 103.807 102.016 103.68 102.144 103.424C102.272 103.168 102.4 102.912 102.656 102.784C102.784 102.656 102.912 102.528 103.04 102.4C103.168 102.272 103.296 102.143 103.424 102.015C103.552 101.887 103.808 101.76 103.808 101.504C104.192 101.12 104.448 100.608 104.704 100.224C104.832 100.096 105.088 99.8395 105.088 99.5835C105.088 99.4555 105.088 99.3275 105.216 99.3275C105.344 99.1995 105.472 98.9435 105.472 98.6875C105.472 98.5595 105.472 98.5595 105.6 98.4315C105.984 98.3035 105.856 98.0475 105.728 97.9195Z" fill="#C42F42"/>
<path d="M107.776 92.4155C107.52 92.6715 107.264 92.7995 107.136 93.0555C106.496 94.2075 106.112 95.3595 106.88 96.5115C106.88 96.3835 106.88 96.3835 107.008 96.2555C107.136 96.1275 107.264 95.8715 107.392 95.7435C107.392 95.6155 107.392 95.4875 107.52 95.4875C107.776 95.2315 107.648 94.8475 107.904 94.5915C107.904 94.4635 107.904 94.3355 108.032 94.2075C108.16 93.9515 108.16 93.5675 108.416 93.4395C108.416 92.7995 108.416 92.5435 107.776 92.4155Z" fill="#C42F42"/>
<path d="M121.856 90.3677C121.728 90.4957 121.6 90.6237 121.472 90.7517C121.472 91.2637 121.216 91.6477 120.96 92.0317C120.96 92.0317 120.832 92.0317 120.832 92.1597C120.832 92.2877 120.832 92.2877 120.96 92.4157C121.216 92.6717 121.472 92.6717 121.856 92.4157C121.856 92.1597 121.856 91.9037 121.856 91.5197C121.984 91.3917 122.112 91.2637 122.24 91.1357C122.24 90.8797 122.112 90.6237 121.856 90.3677Z" fill="#C42F42"/>
<path d="M117.504 83.9682C117.248 83.7122 117.376 83.3282 117.12 83.0722C116.864 82.8162 116.992 82.4322 116.608 82.3042C116.48 82.0482 116.352 81.9202 116.224 81.7922C116.096 81.6642 115.968 81.5362 115.84 81.4082C115.328 81.4082 115.072 81.6642 115.072 82.1762C115.072 84.2242 115.072 86.2722 114.944 88.3202C114.944 88.8322 115.072 89.0882 115.456 89.4722C115.584 89.4722 115.712 89.4722 115.84 89.4722C115.968 89.6002 116.096 89.6002 116.224 89.4722C116.224 88.8322 116.224 88.0642 116.224 87.4242C116.096 87.2962 116.096 87.2962 116.224 87.1682C116.096 86.6562 115.84 86.2722 116.224 85.7602C116.48 85.5042 116.864 85.6322 116.992 85.2482C117.12 85.1202 117.248 84.9922 117.504 84.8642C117.76 84.6082 117.76 84.2242 117.504 83.9682Z" fill="#C42F42"/>
<path d="M3.45593 20.9917C3.19993 20.9917 2.94393 20.9917 2.55993 20.9917C2.43193 21.2477 2.17593 21.3757 1.91993 21.3757C1.27993 21.3757 0.63993 21.3757 0.12793 21.5037C0.12793 21.7597 0.12793 22.0157 0.12793 22.3997C0.38393 22.5277 0.63993 22.6557 0.89593 22.7837C1.15193 22.5277 1.40793 22.3997 1.79193 22.5277C2.17593 22.5277 2.55993 22.5277 3.07193 22.5277C3.19993 22.3997 3.32793 22.2717 3.45593 22.1437C3.45593 21.5037 3.45593 21.2477 3.45593 20.9917Z" fill="#C42F42"/>
<path d="M102.528 99.5833C102.528 99.4553 102.4 99.4553 102.528 99.5833C102.4 99.4553 102.272 99.5833 102.272 99.5833L102.4 99.7113C102.4 99.5833 102.528 99.5833 102.528 99.5833Z" fill="#C42F42"/>
<path d="M93.952 84.2241C93.824 84.2241 93.824 84.4801 93.824 84.6081C93.952 84.9921 94.208 85.1201 94.464 85.3761C94.464 84.9921 94.592 84.6081 94.208 84.3521C94.336 84.2241 94.08 84.2241 93.952 84.2241Z" fill="#C42F42"/>
<g clip-path="url(#clip0_544_3)">
<path d="M14.0871 48.9728L13.3162 53.924L33.6611 56.3624L34.8457 52.5466L32.8714 50.555L15.817 48.7681L14.0871 48.9728Z" fill="#F49714"/>
<path d="M36.1433 50.0711C36.1433 50.127 36.1433 50.1642 36.1433 50.22C32.0442 49.8664 28.1144 49.5499 24.2033 49.1591C21.082 48.8426 17.9795 48.4331 14.8582 48.0981C13.4479 47.9492 12.583 48.6379 12.3574 50.0153C12.2446 50.7598 12.1317 51.4858 12.0189 52.2303C11.8309 53.7566 12.5078 54.6873 14.0684 54.8734C19.2393 55.4505 24.4101 56.0089 29.581 56.53C31.5929 56.7348 33.6237 56.8651 35.6544 57.0326C35.8236 54.9293 35.8424 52.6584 36.1621 50.5365C36.1057 50.3689 36.2561 50.1456 36.1433 50.0711ZM16.6821 52.0256C16.212 52.677 15.6855 53.2727 15.1778 53.9241C13.8052 51.6161 13.8616 51.1507 15.7983 49.2149C16.1368 49.9967 16.4564 50.6668 16.7197 51.3555C16.7949 51.5416 16.7949 51.858 16.6821 52.0256ZM18.5812 54.3336C18.2239 53.5519 17.8855 52.8073 17.547 52.0442C17.4906 51.9325 17.5282 51.7277 17.6034 51.6347C18.0923 50.9646 18.6188 50.3131 19.1453 49.643C20.5743 51.9697 20.5179 52.4164 18.5812 54.3336ZM22.1914 54.6315C20.7059 52.8259 20.7623 52.1372 22.6803 50.0153C22.7931 50.22 22.8683 50.3503 22.9435 50.4806C24.0153 52.7515 24.0153 52.7515 22.1914 54.6315ZM25.6323 55.0223C24.2221 52.7329 24.2409 52.3978 26.0648 50.4806C27.5503 52.3234 27.4374 53.3657 25.6323 55.0223ZM29.1297 55.4132C28.7537 54.6687 28.3776 53.9614 28.0579 53.2354C27.9827 53.0679 28.0203 52.7887 28.1144 52.6398C28.5468 51.9697 29.0357 51.3369 29.5246 50.6481C31.0288 53.1238 31.01 53.3285 29.1297 55.4132ZM32.7963 55.5621C31.1981 54.1475 31.2169 53.1796 33.0032 50.9832C34.545 53.2727 34.5262 53.3471 32.7963 55.5621Z" fill="#F6F6F6"/>
<path d="M104.981 52.1744C104.887 51.5043 104.793 50.8156 104.699 50.1455C104.474 48.3772 103.609 47.7071 101.822 47.9305C92.7405 49.1218 83.6398 49.978 74.5015 50.4433C63.7273 51.0017 52.9531 50.9831 42.179 50.5178C41.032 50.462 39.885 50.3689 38.7192 50.313C38.7192 49.494 38.7004 48.7681 38.7192 48.0236C38.738 46.8509 37.7979 47.2604 37.215 47.1487C36.6133 47.0184 36.2748 47.3163 36.256 47.9491C36.2372 48.6192 36.1808 49.2893 36.1244 50.0711C36.2372 50.1455 36.0868 50.3689 36.1432 50.5364C36.162 50.4433 36.162 50.3317 36.1808 50.2386C36.162 50.3317 36.1432 50.4433 36.1432 50.5364C36.1432 50.555 36.162 50.5922 36.1808 50.6109C36.162 50.5922 36.1432 50.5736 36.1432 50.5364C35.8235 52.6584 35.8047 54.9292 35.6355 57.0326C35.6355 57.7213 35.6919 58.3355 35.6167 58.9498C35.5415 59.7129 35.8235 60.048 36.5945 60.048C37.3278 60.048 38.1175 60.2155 38.0987 59.0987C38.0987 58.4844 38.1551 57.8888 38.1739 57.2373C38.5124 57.2373 38.7568 57.2373 39.0013 57.2373C42.4798 57.3676 45.9584 57.5537 49.4182 57.6468C61.1137 57.926 72.7904 57.684 84.4483 56.6789C90.6533 56.1391 96.8395 55.3759 103.026 54.6872C104.436 54.5011 105.15 53.5146 104.981 52.1744Z" fill="#F6F6F6"/>
<path d="M25.0118 75.9999C25.0118 74.8272 24.9554 73.729 25.0306 72.6494C25.1246 71.2348 26.61 70.0063 28.4903 69.7457C28.9604 69.6899 29.4305 69.6712 29.9006 69.6712C33.2287 69.6712 36.538 69.6712 39.8662 69.6712C40.2046 69.6712 40.5431 69.6712 40.9944 69.6712C40.9944 68.2566 40.9944 66.935 40.9944 65.6135C40.9944 64.3105 40.9944 63.0076 40.9944 61.7046C40.9944 61.4254 40.9944 61.1462 41.0508 60.867C41.3516 59.3407 42.4798 58.3169 43.7584 58.3728C45.0558 58.4286 46.2028 59.6757 46.2404 61.2021C46.2968 63.6218 46.278 66.0416 46.278 68.4614C46.278 68.8336 46.278 69.1873 46.278 69.6154C55.4539 69.6154 64.5358 69.6154 73.6929 69.6154C73.7117 69.2617 73.7305 68.9267 73.7305 68.5917C73.7305 66.4139 73.7305 64.2547 73.7305 62.0769C73.7305 61.6488 73.7681 61.2021 73.8433 60.7926C74.1254 59.3035 75.2536 58.3169 76.5134 58.3914C77.7732 58.4659 78.9014 59.5641 78.9766 61.0159C79.0706 63.2123 79.033 65.4273 79.033 67.6237C79.033 68.2752 79.033 68.9081 79.033 69.6712C79.4655 69.6712 79.8039 69.6712 80.1424 69.6712C83.5269 69.6712 86.9115 69.634 90.296 69.6899C91.1798 69.7085 92.1199 69.8574 92.9473 70.1738C94.3011 70.695 95.1096 71.7001 95.0344 73.2637C94.9968 74.1571 95.0344 75.0506 95.0344 75.9999C71.6434 75.9999 48.384 75.9999 25.0118 75.9999Z" fill="#F6F6F6"/>
<path d="M38.8509 47.3909L38.174 59.8248C38.1552 60.0295 37.9859 60.1784 37.7791 60.1598L35.786 60.0668C35.5791 60.0481 35.4287 59.8806 35.4287 59.6759L36.162 47.335C36.1808 47.1489 36.3313 47 36.5381 47H38.4936C38.7004 47 38.8697 47.1675 38.8697 47.3723C38.8509 47.3723 38.8509 47.3723 38.8509 47.3909Z" fill="#F49714"/>
</g>
<defs>
<clipPath id="clip0_544_3">
<rect width="93" height="29" fill="white" transform="translate(12 47)"/>
</clipPath>
</defs>
</svg>
